Coordinates
version=1
nRows=14
nColumns=40
inDegrees=yes

Units are S.I. units (second, meters, Newtons, ...)
Angles are in degrees.

endheader
time	pelvis_tilt	pelvis_list	pelvis_rotation	pelvis_tx	pelvis_ty	pelvis_tz	hip_flexion_r	hip_adduction_r	hip_rotation_r	knee_angle_r	knee_angle_r_beta	ankle_angle_r	subtalar_angle_r	mtp_angle_r	hip_flexion_l	hip_adduction_l	hip_rotation_l	knee_angle_l	knee_angle_l_beta	ankle_angle_l	subtalar_angle_l	mtp_angle_l	lumbar_extension	lumbar_bending	lumbar_rotation	arm_flex_r	arm_add_r	arm_rot_r	elbow_flex_r	pro_sup_r	wrist_flex_r	wrist_dev_r	arm_flex_l	arm_add_l	arm_rot_l	elbow_flex_l	pro_sup_l	wrist_flex_l	wrist_dev_l
      1.40000000	     -2.19565184	     -0.49201180	      4.73140550	     -0.05251627	      0.96234803	      1.08762027	      8.16864536	      1.39645599	    -20.81834572	    -16.56917302	     -0.28918662	      5.39234515	     -4.91808429	     -3.16459543	     21.50024564	      8.22774470	     11.85587694	    -50.23060165	     -0.87668938	      7.12024387	     15.86295230	      8.82969504	     -2.93818473	     -1.07413647	      3.01786299	      4.42069760	    -11.90743005	    -16.62280428	     20.87894789	     89.95437384	      0.00000000	      0.00000000	     -6.45149510	     10.36823045	      0.65472192	     16.98358206	     89.95437384	      0.00000000	      0.00000000
      1.41000000	     -1.95555340	      0.40410967	      3.93282429	     -0.04563448	      0.96334644	      1.08922903	      7.37509179	      0.62397810	    -19.94467180	    -16.51607789	     -0.28825994	      5.85272107	     -4.58138219	     -3.53599018	     21.23843327	      7.33706461	     13.05447206	    -47.65151710	     -0.83167587	      6.67189152	     15.52402094	      8.84636251	     -3.31396178	     -2.10340754	      3.83658851	      4.99228134	    -12.17627355	    -15.44120538	     20.97298514	     89.95437384	      0.00000000	      0.00000000	     -6.62539322	     10.34865445	      1.97875068	     17.01729149	     89.95437384	      0.00000000	      0.00000000
      1.42000000	     -1.88923641	      0.85529219	      3.52219182	     -0.03883298	      0.96369044	      1.09036951	      6.78243745	      0.24234580	    -19.79287939	    -16.41359531	     -0.28647128	      6.15833682	     -4.13936766	     -3.99783033	     21.41409232	      6.80796658	     13.73488143	    -45.21873944	     -0.78921589	      6.10731853	     15.17389396	      8.81704389	     -3.46478079	     -2.63766298	      4.32045862	      5.45408333	    -12.45251673	    -14.63768055	     21.22198004	     89.95437384	      0.00000000	      0.00000000	     -6.81908083	     10.29778221	      3.19097592	     17.04158842	     89.95437384	      0.00000000	      0.00000000
      1.43000000	     -1.93750755	      1.18611136	      3.13706186	     -0.03204077	      0.96371900	      1.09144987	      6.31237746	     -0.01535592	    -19.57752228	    -16.28453148	     -0.28421869	      6.44492103	     -3.84580837	     -4.42241451	     21.71603510	      6.39680919	     14.35382184	    -42.73108040	     -0.74579805	      5.42426801	     14.76417401	      8.86952959	     -3.45788956	     -3.04143883	      4.78070406	      5.95168402	    -12.67156717	    -14.24537549	     21.40698249	     89.95437384	      0.00000000	      0.00000000	     -6.96080916	     10.24964924	      4.14972708	     16.93412997	     89.95437384	      0.00000000	      0.00000000
      1.44000000	     -1.96806569	      1.42995785	      2.78880770	     -0.02534487	      0.96355836	      1.09255333	      5.87245523	     -0.20427319	    -19.50872489	    -16.24831739	     -0.28358664	      6.74433100	     -3.49760702	     -4.88239124	     22.02013220	      6.12279470	     15.01039822	    -40.26737282	     -0.70279824	      4.66041230	     14.18751891	      8.87464930	     -3.47030542	     -3.34472685	      5.19078095	      6.35375973	    -12.98866567	    -13.31076828	     21.75496824	     89.95437384	      0.00000000	      0.00000000	     -7.10978424	     10.20399519	      5.09004229	     16.86619333	     89.95437384	      0.00000000	      0.00000000
      1.45000000	     -1.90280446	      1.71119581	      2.48995328	     -0.01835341	      0.96347116	      1.09335669	      5.25486936	     -0.45184323	    -19.57034764	    -16.11657434	     -0.28128729	      7.08201139	     -3.07511668	     -5.50045541	     22.10046279	      5.70316916	     15.46803748	    -37.62885161	     -0.65674735	      4.08341878	     13.64395315	      8.81179456	     -3.56569714	     -3.68107960	      5.49787052	      6.82201681	    -13.21895643	    -12.64168133	     21.97755067	     89.95437384	      0.00000000	      0.00000000	     -7.23824352	     10.08777348	      6.39071335	     16.72037564	     89.95437384	      0.00000000	      0.00000000
      1.46000000	     -2.04456824	      1.78570119	      2.29064977	     -0.01160829	      0.96290028	      1.09406160	      4.85609730	     -0.43453795	    -19.43568095	    -15.91153225	     -0.27770863	      7.33828390	     -2.97398324	     -5.79980883	     22.51008224	      5.49631147	     15.81132158	    -35.12940588	     -0.61312380	      3.53597401	     12.99141191	      8.79277533	     -3.42949709	     -3.78905528	      5.79597071	      7.19919875	    -13.47405518	    -12.18673194	     22.30553056	     89.95437384	      0.00000000	      0.00000000	     -7.36973323	     10.05302660	      6.99703130	     16.69008087	     89.95437384	      0.00000000	      0.00000000
      1.47000000	     -1.78211730	      1.96234589	      2.01883960	     -0.00449723	      0.96298985	      1.09474124	      3.97853957	     -0.60548243	    -19.70747953	    -15.71465022	     -0.27427239	      7.57008857	     -2.26899001	     -6.60446104	     22.30176870	      5.22138307	     16.37342703	    -32.45411428	     -0.56643115	      2.99736376	     12.31226010	      8.58445476	     -3.74725449	     -3.99456145	      6.03271656	      7.62087913	    -13.74609663	    -11.40572314	     22.67706147	     89.95437384	      0.00000000	      0.00000000	     -7.45524876	      9.92005112	      8.34260035	     16.50301439	     89.95437384	      0.00000000	      0.00000000
      1.48000000	     -1.74591102	      2.03600736	      1.81983677	      0.00248182	      0.96257817	      1.09531987	      3.36623949	     -0.64558898	    -19.85570487	    -15.53644277	     -0.27116208	      7.83820491	     -1.88439393	     -7.17181670	     22.41890525	      5.03282159	     16.77536431	    -29.90693429	     -0.52197447	      2.33759236	     11.46817520	      8.45443948	     -3.81001299	     -4.10157208	      6.24797400	      8.05042950	    -13.94007227	    -10.92614154	     22.92263038	     89.95437384	      0.00000000	      0.00000000	     -7.54028430	      9.86504260	      9.12096980	     16.34288867	     89.95437384	      0.00000000	      0.00000000
      1.49000000	     -2.00553786	      1.72868966	      1.80070620	      0.00939168	      0.96135428	      1.09573126	      3.09131609	     -0.26249539	    -20.21370213	    -15.36045083	     -0.26809044	      8.16406735	     -1.89757800	     -7.25712613	     23.21522258	      5.28540765	     17.17673478	    -28.11129789	     -0.49063471	      2.36960717	     11.20079643	      8.45655669	     -3.48180496	     -3.77224049	      6.35845560	      8.40507183	    -14.13916773	    -10.85582174	     23.17943065	     89.95437384	      0.00000000	      0.00000000	     -7.71951195	      9.83842167	      9.21238486	     16.22363893	     89.95437384	      0.00000000	      0.00000000
      1.50000000	     -1.81032719	      2.00580875	      1.52786212	      0.01623116	      0.96127284	      1.09601037	      2.25586139	     -0.51703395	    -19.99758368	    -15.03187231	     -0.26235566	      8.43280530	     -1.46383560	     -7.61022276	     22.92333298	      4.78641697	     17.26063798	    -25.25720674	     -0.44082142	      1.27032915	      9.52644355	      8.47835618	     -3.78693424	     -4.07289998	      6.59529946	      8.78081179	    -14.35021767	    -10.34807690	     23.65318676	     89.95437384	      0.00000000	      0.00000000	     -7.66282349	      9.69580005	     10.27536852	     15.98589445	     89.95437384	      0.00000000	      0.00000000
      1.51000000	     -1.43605529	      2.17773194	      1.34873337	      0.02378524	      0.96112782	      1.09610141	      1.26937205	     -0.85763202	    -20.86487135	    -14.98932350	     -0.26161305	      8.51335796	      0.25401068	    -11.19857505	     22.56342322	      4.50572191	     17.77919766	    -22.88051289	     -0.39934028	      0.49209916	      8.33255428	      6.05050250	     -4.21734414	     -4.26242005	      6.57999692	      9.22967512	    -14.53523722	     -9.46331507	     23.95172202	     89.95437384	      0.00000000	      0.00000000	     -7.68137202	      9.48440517	     12.09346589	     15.62941352	     89.95437384	      0.00000000	      0.00000000
      1.52000000	     -1.35241768	      2.13815475	      1.17156383	      0.03081169	      0.96048001	      1.09643357	      0.61452632	     -0.76696075	    -20.86522961	    -14.79441802	     -0.25821131	      8.65497067	      0.25917270	    -11.47517921	     22.67719499	      4.48253406	     18.18961777	    -20.82136827	     -0.36340143	      0.28091708	      6.78354406	      5.85181673	     -4.34088639	     -4.23359642	      6.76601485	      9.53684828	    -14.70471645	     -9.18541577	     24.35890291	     89.95437384	      0.00000000	      0.00000000	     -7.72529866	      9.43258589	     12.56098834	     15.49500832	     89.95437384	      0.00000000	      0.00000000
      1.53000000	     -1.35702497	      2.09208924	      0.95210599	      0.03790837	      0.95958737	      1.09672470	      0.08423063	     -0.70363758	    -20.89443409	    -14.68288212	     -0.25626464	      8.94345875	      0.44909435	    -11.76707339	     22.87974031	      4.47819027	     18.54295938	    -18.89671253	     -0.32980985	      0.09014075	      5.20912268	      5.62722614	     -4.33312302	     -4.19828518	      6.93404354	      9.89893017	    -14.80088953	     -8.95947531	     24.64301719	     89.95437384	      0.00000000	      0.00000000	     -7.79481568	      9.37900066	     12.96446520	     15.30210175	     89.95437384	      0.00000000	      0.00000000
